<?xml version="1.0"?>
<svg xmlns="http://www.w3.org/2000/svg" xmlns:xlink="http://www.w3.org/1999/xlink" xmlns:svgjs="http://svgjs.com/svgjs" version="1.1" width="512" height="512" x="0" y="0" viewBox="0 0 468.293 468.293" style="enable-background:new 0 0 512 512" xml:space="preserve" class=""><g><title xmlns="http://www.w3.org/2000/svg"/>
<path xmlns="http://www.w3.org/2000/svg" style="" d="M29.525,50.447h111.996c7.335,0,14.11,3.918,17.77,10.274l18.433,25.181  c3.66,6.356,10.436,10.274,17.77,10.274h272.798v287.495c0,15.099-12.241,27.34-27.34,27.34H27.34  C12.241,411.011,0,398.77,0,383.671V128.068c0-21.133,3.265-42.14,9.68-62.276l0,0C12.03,56.755,20.188,50.447,29.525,50.447z" fill="#b3bcc4" data-original="#f6c358" class=""/>
<rect xmlns="http://www.w3.org/2000/svg" x="42.615" y="91.473" style="" width="359.961" height="152.058" fill="#ebf0f3" data-original="#ebf0f3" class=""/>
<path xmlns="http://www.w3.org/2000/svg" style="" d="M447.788,64.117H334.927c-8.026,0-15.315,4.683-18.65,11.983l-19.313,42.267  c-3.336,7.3-10.624,11.983-18.65,11.983H0v260.155c0,15.099,12.241,27.34,27.34,27.34h413.613c15.099,0,27.34-12.241,27.34-27.34  V84.622C468.293,73.298,459.112,64.117,447.788,64.117z" fill="#017efa" data-original="#fcd462" class=""/>
<g xmlns="http://www.w3.org/2000/svg">
</g>
<g xmlns="http://www.w3.org/2000/svg">
</g>
<g xmlns="http://www.w3.org/2000/svg">
</g>
<g xmlns="http://www.w3.org/2000/svg">
</g>
<g xmlns="http://www.w3.org/2000/svg">
</g>
<g xmlns="http://www.w3.org/2000/svg">
</g>
<g xmlns="http://www.w3.org/2000/svg">
</g>
<g xmlns="http://www.w3.org/2000/svg">
</g>
<g xmlns="http://www.w3.org/2000/svg">
</g>
<g xmlns="http://www.w3.org/2000/svg">
</g>
<g xmlns="http://www.w3.org/2000/svg">
</g>
<g xmlns="http://www.w3.org/2000/svg">
</g>
<g xmlns="http://www.w3.org/2000/svg">
</g>
<g xmlns="http://www.w3.org/2000/svg">
</g>
<g xmlns="http://www.w3.org/2000/svg">
</g>
</g></svg>
