<?xml version="1.0"?>
<svg xmlns="http://www.w3.org/2000/svg" xmlns:xlink="http://www.w3.org/1999/xlink" xmlns:svgjs="http://svgjs.com/svgjs" version="1.1" width="512" height="512" x="0" y="0" viewBox="0 0 464 463" style="enable-background:new 0 0 512 512" xml:space="preserve" class=""><g><title xmlns="http://www.w3.org/2000/svg"/><linearGradient xmlns="http://www.w3.org/2000/svg" id="linear0" gradientUnits="userSpaceOnUse" x1="42.96" x2="400.888" y1="381.388" y2="23.46"><stop stop-opacity="1" stop-color="#ffffff" offset="0"/><stop stop-opacity="1" stop-color="#ffffff" offset="1"/></linearGradient><path xmlns="http://www.w3.org/2000/svg" d="m376 320.5c0 4.417969-3.582031 8-8 8h-8v24c.003906 8.578125-4.566406 16.503906-11.992188 20.796875-7.429687 4.289063-16.578124 4.292969-24.007812.003906-3.828125-2.210937-5.140625-7.105469-2.933594-10.933593 2.210938-3.828126 7.105469-5.140626 10.933594-2.929688 2.476562 1.429688 5.527344 1.425781 8.003906-.003906 2.476563-1.429688 4-4.074219 3.996094-6.933594v-24h-8c-4.417969 0-8-3.582031-8-8s3.582031-8 8-8h8v-24c-.003906-8.578125 4.566406-16.503906 11.992188-20.796875 7.429687-4.289063 16.578124-4.292969 24.007812-.003906 3.828125 2.210937 5.140625 7.105469 2.933594 10.933593-2.210938 3.828126-7.105469 5.140626-10.933594 2.929688-2.476562-1.429688-5.527344-1.425781-8.003906.003906-2.476563 1.429688-4 4.074219-3.996094 6.933594v24h8c4.417969 0 8 3.582031 8 8zm37.65625 18.34375c-3.125-3.121094-8.1875-3.121094-11.3125 0l-6.34375 6.34375-6.34375-6.34375c-3.140625-3.03125-8.128906-2.988281-11.214844.097656-3.085937 3.085938-3.128906 8.074219-.097656 11.214844l6.34375 6.34375-6.34375 6.34375c-2.078125 2.007812-2.914062 4.984375-2.179688 7.78125.730469 2.796875 2.914063 4.980469 5.710938 5.710938 2.796875.734374 5.773438-.101563 7.78125-2.179688l6.34375-6.34375 6.34375 6.34375c3.140625 3.03125 8.128906 2.988281 11.214844-.097656 3.085937-3.085938 3.128906-8.074219.097656-11.214844l-6.34375-6.34375 6.34375-6.34375c3.121094-3.125 3.121094-8.1875 0-11.3125zm50.34375-10.34375c-.042969 48.273438-35.949219 89-83.839844 95.085938-47.886718 6.089843-92.839844-24.355469-104.960937-71.085938h-251.199219c-13.253906 0-24-10.746094-24-24v-272c0-13.253906 10.746094-24 24-24h376c13.253906 0 24 10.746094 24 24v194.183594c25.085938 17.984375 39.972656 46.949218 40 77.816406zm-448-272v40h392v-40c0-4.417969-3.582031-8-8-8h-376c-4.417969 0-8 3.582031-8 8zm0 184h32v-32h-32zm32-80h-32v32h32zm-32 128h32v-32h-32zm32-176h-32v32h32zm0 224v-32h-32v24c0 4.417969 3.582031 8 8 8zm224.40625 0c-.222656-2.648438-.40625-5.296875-.40625-8 0-13.8125 3.003906-27.460938 8.800781-40h-168.800781c-4.417969 0-8-3.582031-8-8v-128c0-4.417969 3.582031-8 8-8h256c4.417969 0 8 3.582031 8 8v80.40625c11.074219.90625 21.90625 3.75 32 8.394531v-128.800781h-344v224zm87.59375-103.59375v-8.40625h-40v16h9.742188c9.601562-4.179688 19.824218-6.746094 30.257812-7.59375zm-56 24.242188v-.648438h-152v16h138.183594c4.042968-5.597656 8.675781-10.742188 13.816406-15.351562zm-168-64.648438h-16v16h16zm-16 48h16v-16h-16zm32 0h152v-16h-152zm152-32v-16h-152v16zm16 0h40v-16h-40zm40-48h-40v16h40zm-56 0h-184v16h184zm-184 112h16v-16h-16zm328 56c0-44.183594-35.816406-80-80-80s-80 35.816406-80 80 35.816406 80 80 80c44.164062-.046875 79.953125-35.835938 80-80zm-400-264h-16v16h16zm56 0h-40v16h40zm32 0h-16v16h16zm-24 256h32v-16h-32zm48 0h32v-16h-32zm-64-304h16v-16h-16zm-16 0v-16h-16v16zm-64 0h32v-16h-32zm424 216h16v-16h-16zm16-48h-16v16h16zm0-48h-16v32h16zm0 0" fill="url(#linear0)" data-original="url(#linear0)" style="" class=""/></g></svg>
