<?xml version="1.0"?>
<svg xmlns="http://www.w3.org/2000/svg" xmlns:xlink="http://www.w3.org/1999/xlink" xmlns:svgjs="http://svgjs.com/svgjs" version="1.1" width="512" height="512" x="0" y="0" viewBox="0 0 256 256" style="enable-background:new 0 0 512 512" xml:space="preserve" class=""><g><title xmlns="http://www.w3.org/2000/svg"/><rect xmlns="http://www.w3.org/2000/svg" fill="#ffffff" height="50.25" rx="5" width="67" x="17.5" y="97.389" data-original="#f8af23" style=""/><path xmlns="http://www.w3.org/2000/svg" d="m27 142.639v-40.25a5 5 0 0 1 5-5h-9.5a5 5 0 0 0 -5 5v40.25a5 5 0 0 0 5 5h9.5a5 5 0 0 1 -5-5z" fill="#ffffff" data-original="#f87023" style="" class=""/><path xmlns="http://www.w3.org/2000/svg" d="m84.5 102.389a5 5 0 0 0 -5-5h-57a5 5 0 0 0 -5 5v9.288h67z" fill="#9e9e9e" data-original="#9e9e9e" style="" class=""/><path xmlns="http://www.w3.org/2000/svg" d="m32 97.389h-9.5a5 5 0 0 0 -5 5v9.288h9.5v-9.288a5 5 0 0 1 5-5z" fill="#707070" data-original="#707070" style="" class=""/><rect xmlns="http://www.w3.org/2000/svg" fill="#ffffff" height="50.25" rx="5" width="67" x="94.5" y="97.389" data-original="#f8af23" style=""/><path xmlns="http://www.w3.org/2000/svg" d="m104 142.639v-40.25a5 5 0 0 1 5-5h-9.5a5 5 0 0 0 -5 5v40.25a5 5 0 0 0 5 5h9.5a5 5 0 0 1 -5-5z" fill="#ffffff" data-original="#f87023" style="" class=""/><path xmlns="http://www.w3.org/2000/svg" d="m161.5 102.389a5 5 0 0 0 -5-5h-57a5 5 0 0 0 -5 5v9.288h67z" fill="#9e9e9e" data-original="#9e9e9e" style="" class=""/><path xmlns="http://www.w3.org/2000/svg" d="m109 97.389h-9.5a5 5 0 0 0 -5 5v9.288h9.5v-9.288a5 5 0 0 1 5-5z" fill="#707070" data-original="#707070" style="" class=""/><rect xmlns="http://www.w3.org/2000/svg" fill="#ffffff" height="50.25" rx="5" width="67" x="171.5" y="97.389" data-original="#f8af23" style=""/><path xmlns="http://www.w3.org/2000/svg" d="m229 142.639v-40.25a5 5 0 0 0 -5-5h9.5a5 5 0 0 1 5 5v40.25a5 5 0 0 1 -5 5h-9.5a5 5 0 0 0 5-5z" fill="#ffffff" data-original="#f8d323" style="" class=""/><path xmlns="http://www.w3.org/2000/svg" d="m238.5 102.389a5 5 0 0 0 -5-5h-57a5 5 0 0 0 -5 5v9.288h67z" fill="#9e9e9e" data-original="#9e9e9e" style="" class=""/><path xmlns="http://www.w3.org/2000/svg" d="m224 97.389h9.5a5 5 0 0 1 5 5v9.288h-9.5v-9.288a5 5 0 0 0 -5-5z" fill="#cecece" data-original="#cecece" style="" class=""/><rect xmlns="http://www.w3.org/2000/svg" fill="#ffffff" height="50.25" rx="5" width="67" x="17.5" y="170.889" data-original="#f46275" style="" class=""/><path xmlns="http://www.w3.org/2000/svg" d="m27 216.139v-40.25a5 5 0 0 1 5-5h-9.5a5 5 0 0 0 -5 5v40.25a5 5 0 0 0 5 5h9.5a5 5 0 0 1 -5-5z" fill="#ffffff" data-original="#f43075" style="" class=""/><path xmlns="http://www.w3.org/2000/svg" d="m84.5 175.889a5 5 0 0 0 -5-5h-57a5 5 0 0 0 -5 5v9.288h67z" fill="#9e9e9e" data-original="#9e9e9e" style="" class=""/><path xmlns="http://www.w3.org/2000/svg" d="m32 170.889h-9.5a5 5 0 0 0 -5 5v9.288h9.5v-9.288a5 5 0 0 1 5-5z" fill="#707070" data-original="#707070" style="" class=""/><rect xmlns="http://www.w3.org/2000/svg" fill="#ffffff" height="50.25" rx="5" width="67" x="94.5" y="170.889" data-original="#f46275" style="" class=""/><path xmlns="http://www.w3.org/2000/svg" d="m104 216.139v-40.25a5 5 0 0 1 5-5h-9.5a5 5 0 0 0 -5 5v40.25a5 5 0 0 0 5 5h9.5a5 5 0 0 1 -5-5z" fill="#ffffff" data-original="#f43075" style="" class=""/><path xmlns="http://www.w3.org/2000/svg" d="m161.5 175.889a5 5 0 0 0 -5-5h-57a5 5 0 0 0 -5 5v9.288h67z" fill="#9e9e9e" data-original="#9e9e9e" style="" class=""/><path xmlns="http://www.w3.org/2000/svg" d="m109 170.889h-9.5a5 5 0 0 0 -5 5v9.288h9.5v-9.288a5 5 0 0 1 5-5z" fill="#707070" data-original="#707070" style="" class=""/><rect xmlns="http://www.w3.org/2000/svg" fill="#ffffff" height="50.25" rx="5" width="67" x="171.5" y="170.889" data-original="#f46275" style="" class=""/><path xmlns="http://www.w3.org/2000/svg" d="m229 216.139v-40.25a5 5 0 0 0 -5-5h9.5a5 5 0 0 1 5 5v40.25a5 5 0 0 1 -5 5h-9.5a5 5 0 0 0 5-5z" fill="#ffffff" data-original="#f48875" style="" class=""/><path xmlns="http://www.w3.org/2000/svg" d="m238.5 175.889a5 5 0 0 0 -5-5h-57a5 5 0 0 0 -5 5v9.288h67z" fill="#9e9e9e" data-original="#9e9e9e" style="" class=""/><path xmlns="http://www.w3.org/2000/svg" d="m224 170.889h9.5a5 5 0 0 1 5 5v9.288h-9.5v-9.288a5 5 0 0 0 -5-5z" fill="#cecece" data-original="#cecece" style="" class=""/><rect xmlns="http://www.w3.org/2000/svg" fill="#ffffff" height="50.25" rx="5" width="67" x="94.5" y="23.889" data-original="#63bce7" style="" class=""/><path xmlns="http://www.w3.org/2000/svg" d="m104 69.139v-40.25a5 5 0 0 1 5-5h-9.5a5 5 0 0 0 -5 5v40.25a5 5 0 0 0 5 5h9.5a5 5 0 0 1 -5-5z" fill="#ffffff" data-original="#6377e7" style="" class=""/><path xmlns="http://www.w3.org/2000/svg" d="m161.5 28.889a5 5 0 0 0 -5-5h-57a5 5 0 0 0 -5 5v9.288h67z" fill="#9e9e9e" data-original="#9e9e9e" style="" class=""/><path xmlns="http://www.w3.org/2000/svg" d="m109 23.889h-9.5a5 5 0 0 0 -5 5v9.288h9.5v-9.288a5 5 0 0 1 5-5z" fill="#707070" data-original="#707070" style="" class=""/><g xmlns="http://www.w3.org/2000/svg" fill="#3f3679"><path d="m27.323 230.611h-18a1.5 1.5 0 0 0 0 3h18a1.5 1.5 0 1 0 0-3z" fill="#3f3679" data-original="#3f3679" style="" class=""/><path d="m246.68 230.611h-18a1.5 1.5 0 0 0 0 3h18a1.5 1.5 0 0 0 0-3z" fill="#3f3679" data-original="#3f3679" style="" class=""/><path d="m218.479 230.611h-180.958a1.5 1.5 0 0 0 0 3h180.958a1.5 1.5 0 0 0 0-3z" fill="#3f3679" data-original="#3f3679" style="" class=""/><path d="m9.32 222.639h237.36a1.5 1.5 0 0 0 0-3h-7.711a6.456 6.456 0 0 0 1.031-3.5v-40.25a6.508 6.508 0 0 0 -6.5-6.5h-27v-20.25h27a6.508 6.508 0 0 0 6.5-6.5v-40.25a6.508 6.508 0 0 0 -6.5-6.5h-57a6.508 6.508 0 0 0 -6.5 6.5v18.625h-7v-18.625a6.508 6.508 0 0 0 -6.5-6.5h-27v-20.25h27a6.508 6.508 0 0 0 6.5-6.5v-40.25a6.508 6.508 0 0 0 -6.5-6.5h-57a6.508 6.508 0 0 0 -6.5 6.5v40.25a6.508 6.508 0 0 0 6.5 6.5h27v20.25h-27a6.508 6.508 0 0 0 -6.5 6.5v18.625h-7v-18.625a6.508 6.508 0 0 0 -6.5-6.5h-57a6.508 6.508 0 0 0 -6.5 6.5v40.25a6.508 6.508 0 0 0 6.5 6.5h27v20.25h-27a6.508 6.508 0 0 0 -6.5 6.5v40.25a6.456 6.456 0 0 0 1.031 3.5h-7.711a1.5 1.5 0 0 0 0 3zm86.68-193.75a3.5 3.5 0 0 1 3.5-3.5h57a3.5 3.5 0 0 1 3.5 3.5v7.788h-64zm0 40.25v-29.462h64v29.462a3.5 3.5 0 0 1 -3.5 3.5h-57a3.5 3.5 0 0 1 -3.5-3.5zm3.5 150.5a3.5 3.5 0 0 1 -3.5-3.5v-29.462h64v29.462a3.5 3.5 0 0 1 -3.5 3.5zm57-47.25a3.5 3.5 0 0 1 3.5 3.5v7.788h-64v-7.788a3.5 3.5 0 0 1 3.5-3.5zm20 47.25a3.5 3.5 0 0 1 -3.5-3.5v-29.462h64v29.462a3.5 3.5 0 0 1 -3.5 3.5zm60.5-43.75v7.788h-64v-7.788a3.5 3.5 0 0 1 3.5-3.5h57a3.5 3.5 0 0 1 3.5 3.5zm-3.5-29.75h-57a3.5 3.5 0 0 1 -3.5-3.5v-29.462h64v29.462a3.5 3.5 0 0 1 -3.5 3.5zm-60.5-43.75a3.5 3.5 0 0 1 3.5-3.5h57a3.5 3.5 0 0 1 3.5 3.5v7.788h-64zm-3 21.625v18.625a6.508 6.508 0 0 0 6.5 6.5h27v20.25h-27a6.508 6.508 0 0 0 -6.5 6.5v40.25a6.456 6.456 0 0 0 1.031 3.5h-9.063a6.456 6.456 0 0 0 1.031-3.5v-40.25a6.508 6.508 0 0 0 -6.5-6.5h-27v-20.25h27a6.508 6.508 0 0 0 6.5-6.5v-18.625zm-74-10.837h64v29.462a3.5 3.5 0 0 1 -3.5 3.5h-57a3.5 3.5 0 0 1 -3.5-3.5zm0-10.788a3.5 3.5 0 0 1 3.5-3.5h57a3.5 3.5 0 0 1 3.5 3.5v7.788h-64zm-77 0a3.5 3.5 0 0 1 3.5-3.5h57a3.5 3.5 0 0 1 3.5 3.5v7.788h-64zm0 40.25v-29.462h64v29.462a3.5 3.5 0 0 1 -3.5 3.5h-57a3.5 3.5 0 0 1 -3.5-3.5zm33.5 6.5h27a6.508 6.508 0 0 0 6.5-6.5v-18.625h7v18.625a6.508 6.508 0 0 0 6.5 6.5h27v20.25h-27a6.508 6.508 0 0 0 -6.5 6.5v40.25a6.456 6.456 0 0 0 1.031 3.5h-9.062a6.456 6.456 0 0 0 1.031-3.5v-40.25a6.508 6.508 0 0 0 -6.5-6.5h-27zm-33.5 26.75a3.5 3.5 0 0 1 3.5-3.5h57a3.5 3.5 0 0 1 3.5 3.5v7.788h-64zm0 40.25v-29.462h64v29.462a3.5 3.5 0 0 1 -3.5 3.5h-57a3.5 3.5 0 0 1 -3.5-3.5z" fill="#3f3679" data-original="#3f3679" style="" class=""/></g></g></svg>
